# xmcd
#
# Track frame offsets:
#	182
#	24232
#	39537
#	56065
#	84007
#
# Disc length: 4440 seconds
#
# Revision: 2
# Processed by: cddbd v1.4PL0 Copyright (c) Steve Scherf et al.
# Submitted via: dBpowerAMP V4.0
#
DISCID=2e115605
DTITLE=Kool Savas - Der beste Tag meines Lebens - Maxi
DYEAR=2003
DGENRE=Hip-Hop
TTITLE0=Der beste Tag meines Lebens (feat. Valezka)
TTITLE1=Optik Boom (feat. Eko and J-Luv)
TTITLE2=Sinn der Sache (feat. Eko)
TTITLE3=Bitte Spitte (feat. Eko)
TTITLE4=DATA
EXTD=
EXTT0=
EXTT1=
EXTT2=
EXTT3=
EXTT4=
PLAYORDER=
